<?xml version="1.0" encoding="UTF-8" standalone="no"?>
<svg
   xmlns:dc="http://purl.org/dc/elements/1.1/"
   xmlns:cc="http://creativecommons.org/ns#"
   xmlns:rdf="http://www.w3.org/1999/02/22-rdf-syntax-ns#"
   xmlns:svg="http://www.w3.org/2000/svg"
   xmlns="http://www.w3.org/2000/svg"
   xmlns:sodipodi="http://sodipodi.sourceforge.net/DTD/sodipodi-0.dtd"
   xmlns:inkscape="http://www.inkscape.org/namespaces/inkscape"
   version="1.1"
   x="0px"
   y="0px"
   width="72"
   height="72"
   viewBox="0 0 72 72"
   enable-background="new 0 0 72 72"
   xml:space="preserve"
   id="svg8"
   sodipodi:docname="twitter.svg"
   inkscape:version="1.0.1 (3bc2e813f5, 2020-09-07)"><metadata
   id="metadata14"><rdf:RDF><cc:Work
       rdf:about=""><dc:format>image/svg+xml</dc:format><dc:type
         rdf:resource="http://purl.org/dc/dcmitype/StillImage" /></cc:Work></rdf:RDF></metadata><defs
   id="defs12" /><sodipodi:namedview
   pagecolor="#ffffff"
   bordercolor="#666666"
   borderopacity="1"
   objecttolerance="10"
   gridtolerance="10"
   guidetolerance="10"
   inkscape:pageopacity="0"
   inkscape:pageshadow="2"
   inkscape:window-width="1920"
   inkscape:window-height="1057"
   id="namedview10"
   showgrid="false"
   inkscape:zoom="12.361111"
   inkscape:cx="36"
   inkscape:cy="36"
   inkscape:window-x="-8"
   inkscape:window-y="-8"
   inkscape:window-maximized="1"
   inkscape:current-layer="svg8" />
<g
   id="bounds"><rect
     opacity="0"
     width="72"
     height="72"
     id="rect2" /></g>
<g
   id="icon">
<path
   d="M67.812,16.141c-2.348,1.039-4.869,1.743-7.519,2.06c2.703-1.62,4.778-4.187,5.756-7.244c-2.529,1.5-5.33,2.592-8.313,3.176C55.349,11.591,51.948,10,48.182,10c-7.229,0-13.092,5.861-13.092,13.093c0,1.026,0.118,2.021,0.338,2.981C24.543,25.526,14.9,20.317,8.441,12.395c-1.126,1.936-1.771,4.184-1.771,6.581c0,4.542,2.312,8.551,5.824,10.898c-2.146-0.069-4.165-0.657-5.93-1.638c-0.002,0.055-0.002,0.11-0.002,0.162c0,6.345,4.513,11.638,10.504,12.84c-1.101,0.298-2.256,0.457-3.449,0.457c-0.846,0-1.667-0.078-2.465-0.231c1.667,5.2,6.499,8.986,12.23,9.09C18.9,54.066,13.253,56.16,7.122,56.16c-1.055,0-2.096-0.061-3.122-0.184c5.794,3.717,12.676,5.882,20.067,5.882c24.083,0,37.251-19.949,37.251-37.249c0-0.566-0.014-1.134-0.039-1.694C63.838,21.068,66.058,18.765,67.812,16.141z"
   id="path5" />
</g>
<path
   style="fill:#1d9bf0;stroke-width:0.0808989;fill-opacity:1"
   d="M 21.276404,61.71672 C 15.977369,61.295586 10.718899,59.726118 6.2196287,57.222803 5.5797318,56.866775 4.8741573,56.45894 4.6516854,56.316502 l -0.4044944,-0.258978 0.6876405,0.06233 c 0.9876196,0.08953 3.858059,0.05984 4.8539325,-0.0502 4.300635,-0.475193 8.279063,-1.878254 11.73736,-4.13938 0.965213,-0.631082 1.853651,-1.284798 1.853651,-1.363923 0,-0.03356 -0.361199,-0.08303 -0.802665,-0.10992 -0.89114,-0.05429 -2.406418,-0.368397 -3.279507,-0.679819 -3.464226,-1.235653 -6.411984,-4.051244 -7.764117,-7.416002 -0.158698,-0.394917 -0.288542,-0.74409 -0.288542,-0.775938 0,-0.03185 0.172921,-0.02968 0.384269,0.0048 0.795108,0.129777 2.494438,0.17156 3.287557,0.08083 0.924367,-0.105741 2.001793,-0.314834 2.097213,-0.406999 0.03612,-0.03489 -0.2498,-0.142551 -0.635372,-0.239256 C 11.029808,39.682529 6.9416828,34.735351 6.658882,29.261877 L 6.6096,28.30805 7.2486201,28.626797 c 0.7727298,0.385442 2.1043803,0.837832 2.9850879,1.0141 0.696242,0.139347 2.22921,0.314137 2.283034,0.260312 0.01803,-0.01804 -0.251297,-0.245887 -0.598515,-0.506339 -3.3873789,-2.54088 -5.3542872,-6.697679 -5.1812823,-10.949926 0.07327,-1.800873 0.4647091,-3.378672 1.2471757,-5.027066 l 0.446997,-0.941672 0.7242498,0.838907 c 5.4421978,6.303758 13.0289568,10.657696 21.2626108,12.202324 1.613518,0.302694 4.896092,0.678605 5.001895,0.572803 0.01977,-0.01977 -0.02206,-0.391976 -0.09295,-0.827134 -0.353497,-2.169944 -0.213699,-4.099446 0.447105,-6.170971 1.45627,-4.565207 5.463742,-8.041702 10.20948,-8.856758 3.949917,-0.678379 7.878462,0.478308 10.996142,3.237609 l 0.795375,0.703947 0.94395,-0.220108 c 2.050519,-0.478135 4.046585,-1.223666 6.050964,-2.260034 0.639457,-0.330632 1.162649,-0.58659 1.162649,-0.568795 0,0.11165 -0.434051,1.150431 -0.709832,1.698787 -0.979452,1.947514 -2.714822,3.896724 -4.457388,5.006647 -0.632742,0.403024 -0.52788,0.441916 0.662535,0.245728 1.708793,-0.281619 3.428394,-0.74134 5.023941,-1.343111 0.574804,-0.216791 1.06152,-0.377743 1.081591,-0.357672 0.045,0.045 -0.38949,0.650135 -1.192973,1.661541 -1.156957,1.45635 -3.158258,3.399922 -4.582262,4.450082 l -0.49349,0.363935 -0.04645,2.426966 c -0.04913,2.567256 -0.172869,3.834099 -0.588663,6.026966 -1.904164,10.042435 -7.752388,19.029894 -15.932965,24.485534 -5.214969,3.477873 -11.203066,5.468558 -17.838202,5.930139 -1.360595,0.09465 -4.351218,0.091 -5.582023,-0.0068 z"
   id="path16" /></svg>
